# xmcd CD database file
#
# Track frame offsets:
#	150
#	22080
#	49223
#
# Disc length: 945 seconds
#
# Revision: 0
# Processed by: cddbd v1.5.1PL0 Copyright (c) Steve Scherf et al.
# Submitted via: CDex 1.51
#
DISCID=2203af03
DTITLE=Crystal Kay - hard to say
DYEAR=2002
DGENRE=R&B
TTITLE0=hard to say
TTITLE1=think of U(KZ Future Disco Mix)
TTITLE2=hard to say(instrumental)
EXTD=YEAR: 2002
EXTT0=
EXTT1=
EXTT2=
PLAYORDER=
